<?xml version="1.0" encoding="UTF-8"?>
<svg id="Layer_1" xmlns="http://www.w3.org/2000/svg" version="1.1" viewBox="0 0 722.57 448.77">
  <!-- Generator: Adobe Illustrator 29.1.0, SVG Export Plug-In . SVG Version: 2.1.0 Build 142)  -->
  <path d="M358.72,141.38l7.57,2.91c7.96.69,16.79.15,22.42-5.91-3-.53-8.07-1.03-6.99-5.01,10.03,1.82,12.87,3.97,14.77-7.79.32-2-1.13-6.89.74-7.21,4.68-.82,2.72,12.77,1.49,14.99,16.48-.32,25.76-32.44,8.24-35.8-7.86-1.51-12.62,9.23-3.25,8.82-1.51,6.42-8.3,2.27-8.73-2.66-.89-10.23,13.86-12.88,21.14-5.25,10.86,11.38,2.56,31.22-10.36,37.44-3.9,1.87-7.63,1.83-10.77,3.23-2.67,1.18-5.54,5.03-9.27,6.73-7.47,3.41-16.14,4.14-24.06,2.06-2.88-.76-9.86-5.27-10.44-5.27-.47,0-6.2,3.76-8.23,4.48-11.25,4.03-20.39,1.87-30.19-4.36-4.76-3.03-5.13-2.9-9.8-5.2-12.18-6.01-20.83-15.7-17.84-30.28,2.08-10.15,14.5-17.34,21.98-8.86s-3.92,16.67-6.41,10.4c-1.02-2.56,3.37-.75,4.58-2.41,3.23-4.46-6.08-12.41-12.59-4.58-9.45,11.36.13,28.33,13,31.5-1.02-4.34-3.3-7.85-1.08-12.41l3.08-.59c-.19,11.98,3.13,18.09,16,14.01l-.58,3.08-6.41.92c-.39,1.78.52,1.98,1.65,2.84,5.91,4.49,19.79,4.56,25.85.16l-15.06-9.96c-19.72-21.05-21.34-61.01,8.56-73.53,16.44-6.89,33.57-1.12,44.5,12.47,19.33,24.03,5.6,62.8-23.5,71.02ZM357.71,120.38c-1.66,1.85,8.13,7.53,9.03,9.54l2,.07c15.58-11.71,22.08-31.95,14.15-50.3-17.16-39.76-77.88-16.68-59.94,30.94,2.61,6.93,7.65,16.44,14.76,19.31l11.98-9.07c-14.45-10.31-26.37-18.24-17.83-37.85,5.66-12.99,21.35-18.36,33.54-10.84,17.38,10.71,13.92,44.58-7.69,48.2ZM350.45,72.62c-13.68,2.33-23.75,23.53-13.63,34.15,2.03,2.13,15.85,11.43,18.22,11.35s8.62-3.65,10.59-5.32c14.63-12.37,6.73-43.9-15.19-40.18ZM340.71,132.36c7.55,3.45,14.59,5.9,22,.5-6.75-11.82-13.82-8.99-22-.5Z"/>
  <path d="M351.72,373.37c10.05-14.32,35.07-29.14,52.32-20.83,18.89,9.1,2.88,33.4-9.02,22.51-7.93-7.25,3.43-16.51,4.6-9.05.22,1.41-3.78,4.01-.95,5.9,5.63,3.76,14.37-6.27,4.54-13.54-9.29-6.88-26.4.03-34.52,6.5-2.44,1.95-12.15,11.72-11.55,14.6.73,3.48,11.52,9.36,15.15,9.82,13.2,1.7,17.29-10.51,4.42-12.9,3.19,12.86-11.47,4.63-4.27-2.05,8.94-8.3,22.91,5.98,13.81,16.09-8.55,9.5-27.23,1.45-34.18-6.97-8.21,6.94-14.18,11.72-25.81,9.87-12.52-1.99-10.77-21.87,2.95-21.03,9.65.59,7.92,15.37-.51,9.56-.2-1,3.98-4.58.45-5.46-4.78-1.19-9.91,7.42-3.36,11.39,6.91,4.2,18.83-2.51,21.46-9.46-7.07-13.9-21.38-26.1-37.96-23.85-4.76.65-9.73,3.51-10.41,8.68-1.29,9.8,14.45,10.82,7.82.76,2.17-3.47,6.48-.06,7.01,3.02,1.58,9.19-12,11.75-17.44,4.39-7.63-10.31,2.21-20.59,13.04-21.82,16.35-1.85,35.66,9.07,42.41,23.88Z"/>
  <g>
    <path d="M495.78,182.37l20.49,45.01,19.01-45.01h16.5l-5.94,8.56c1.09,17.39-1.65,36.86-.11,53.99.54,6.02,1.53,5.37,5.74,8.22.91.62,1.82-.17,1.3,2.23h-26c-.84-2.52,6-4.97,6-6.5v-46.5l-19.49,44.07-4.62-.69-18.89-42.38v44.5c0,1.79,4.71,5.81,7,5.52v1.98s-20,0-20,0c-.53-2.41.41-1.62,1.31-2.23,3.73-2.54,5.21-1.65,5.75-7.21,1.07-10.95,1.45-43.68-.13-54-.24-1.55-1.45-4.38-2.48-5.52-1.86-2.04-5.06-1.08-4.45-4.05h19Z"/>
    <path d="M345.3,182.37l-6,6.5v26.5l28-1.01c-3.87-10.42,4.23-25.04-7-31.99h26c-3.55,3.79-6.13,4.84-6.91,10.59-1.48,10.95-1.18,39.58-.14,50.96.18,2,.2,2.95,1.17,4.83,1.55,2.98,5.61,3.23,5.87,6.63h-26v-1.99c2.03.22,6-2.79,6-4.51v-28.5h-27v28.5c0,1.53,6.84,3.98,6,6.5h-26c-.36-3.23,3.51-2.08,5.44-5.06,1.46-2.24,1.4-4.86,1.6-7.4.92-11.85,1.45-39.73-.13-50.95-.78-5.55-3.5-6.06-6.91-9.59h26Z"/>
    <path d="M457.01,182.37l1.99,16c-3.01,3.07-6.31-10-10.49-10h-23.5v27h15.5c4.73,0,6.58-8.02,8-7.98l1.5,1.48v19.5l-2.93-.05c-.02-2.51-3.05-7.95-5.57-7.95h-16.5v29h20.5c2.81,0,9.07-3.64,10.94-6.06,1.63-2.1,1.86-7.05,5.05-5.93,2.04.72.9,1.8.76,2.71-.78,4.88-2.91,10.2-3.25,15.28h-54c-.52-2.4.39-1.62,1.3-2.23,4.22-2.85,5.2-2.2,5.74-8.22,1.05-11.66,1.43-41.83-.14-52.96-.83-5.89-3.73-5.57-6.91-9.59h52Z"/>
    <path d="M145.54,255.37h-27c-.43-3,3.58-3.1,4.52-4.99,2.15-4.33-3.91-12.62-4.41-17.41l-25.97-.45-5.19,16.33c.36,3.58,6.27,2.58,6.05,6.53h-18.5l-1.02-2.01c5.38-2.25,6.78-4.94,9-10.01,7.12-16.3,11.7-34.53,19.34-50.74,1.28-4.55-4.31-6.09-3.82-10.23l11.51-1.05,2.3,1.74,27.18,66.81c1.68,2.21,6.22,2.06,6,5.5ZM115.54,226.37c-3.12-7.25-5.46-16.68-8.97-23.53-.48-.94-.56-2.38-2.02-2.47l-9.01,26h20Z"/>
    <path d="M300.9,186.37v17l-3.08-.62c-6.08-19.08-30.96-23.05-39.21-3.17-10.18,24.53,4.12,61,35.19,47.19,1.29-.57,7.2-6.05,8.09-1.89.36,1.66-5.88,5.86-7.3,6.68-22.75,13.04-50.31-.59-52.68-26.71-3.34-36.97,26.99-52.74,58.98-38.48Z"/>
    <path d="M589.28,182.37l-4.59,6.06,16.07,30.94,13.35-28.76c1.57-4.77-4.68-4.37-4.84-8.25h19c-1.38,3.65-4.79,4.69-7.19,8.31-3.37,5.06-16.7,32.29-17.57,37.43-.64,3.77-.82,16.01-.02,19.55,1.07,4.79,5.41,4.34,7.79,7.71h-28c-.45-2.62.37-1.55,1.42-2.09,2.52-1.29,4.46-.71,5.36-4.62.68-2.96.7-19.68-.03-22.54-2.26-8.84-14.77-23.47-17.96-33.04l-8.8-10.7h26Z"/>
    <path d="M189.05,182.37v1.98c-2.96-.16-7,3.92-7,6.52v57c.88,1.43,1.99,1.38,3.45,1.55,7.09.83,21.55-.18,26.59-5.51,2.99-3.16,2.82-8.3,6.95-7.54l-4,18.99h-51.5l-1.02-2.01c2.62-1.48,5.84-2.02,6.49-5.52-1.3-17.93,1.82-38.42.09-56.03-.64-6.56-4.3-4.43-6.06-9.44h26Z"/>
  </g>
  <path d="M283.21,358.37c3.54,1,1.02,5.91-2.99,5.01l-115.04-1.08c-2.68.32-1.86,5.2-7.97,5.19-13.12,0-6.29-20.86,4.74-12.13,2.46,1.95.35,3.02,4.26,3.02h117Z"/>
  <path d="M540.21,358.37c1.32-.37,3.1-4.5,6.05-5.01,8.15-1.41,11.9,9.92,4.19,13.27-6.33,2.75-7.23-3.64-12.19-4.31-24.69.37-49.4-.3-74.09.01-12.08.15-24.72,2.19-36.97,1.05-6.92-.64-4.44-5.01-2.99-5.01h116Z"/>
  <path d="M274.21,117.37c1.09.31,1.86,2.28,1.48,3.48l-2.49,1.51-106.05-1.05c-4.96.67-5.85,7.06-12.19,4.31-7.71-3.35-3.96-14.68,4.19-13.27,2.71.47,5.38,5.01,6.05,5.01h109Z"/>
  <path d="M428.83,122.27l-.66-2.92,3.08-1.95,107,.05c2.3-.28,2.52-5.14,7.97-5.13,10.86.02,7.63,18.08-3.25,13.3-2.48-1.09-3.56-4.56-6.7-4.3l-107.44.96Z"/>
  <path d="M675.47,216.55c10.06-1.22,14.24,12.2,5.61,16.69-12.88,6.7-19.32-15.02-5.61-16.69Z"/>
  <path d="M27.47,216.55c10.06-1.22,14.24,12.2,5.61,16.69-12.88,6.7-19.32-15.02-5.61-16.69Z"/>
  <g>
    <path d="M174.1,321.37v-2s2,0,2,0v-25.5c0-.42-2.11-1.46-2-2.5h16.5c.34,0,4.8,2.06,5.46,2.54,6.62,4.76,7.59,17.04,2.06,22.98-1.03,1.11-7.5,4.48-8.52,4.48h-15.5ZM182.1,318.37c18.15,3.61,17.56-28.48,0-25v25Z"/>
    <path d="M519.35,291.37l1,6.99c-3.07.42-1.74-2.38-4.74-3.75-1.42-.64-8.63-1.87-9.26-1.25v11.01c4.08.72,6.48-.57,10-2v7.99s-2.54-3.06-2.54-3.06l-8.46.08c1.56,3.43,1.56,7.56,0,10.98,6.52-.04,11.4,1.48,15.99-3.99l-.99,7h-23c.8-1.81,2.54-2.23,2.98-4.52.5-2.62.34-20.64-.49-22.46-.51-1.12-2.31-1.69-2.49-3.02h22Z"/>
    <path d="M558.28,292.54c.26.42,1.48,6.96-.34,6.81-.59-.05-2.25-3.53-3.51-4.47-3.05-2.26-11.04-2.56-11.01,1.99.04,6.61,23,6.26,15.9,19.87-3.66,7.01-22.99,7.4-19.86-3.37,2.87-.23,3.07,3.04,5.01,4.47,3.5,2.59,10.09,2.02,10.09-2.97,0-5.3-7.11-5.6-10.46-7.65-11.19-6.87-4.52-18.08,7.76-16.78.99.11,6.2,1.72,6.43,2.09Z"/>
    <path d="M403.36,320.89h-12s2.97-2.07,2.97-2.07l-2.06-6.82-10.79.02-.12,8.88h-6.99c-.69-2.77,1.74-1.71,2.8-3.65,1.44-2.64,7.4-18.67,7.8-21.34.31-2.05-.16-3.11-.62-5l5.51-.06c4.78,9.86,6.6,21.37,13.5,30.05ZM390.35,309.9l-3.98-10.99-3,10.99c2.49-1.36,4.49-1.36,6.98,0Z"/>
    <path d="M236.09,291.37c2.26,1.62,1.44,4.57,1.49,7-3.7-5.01-6.81-5.61-12.99-5v11.01c2-.24,4.51.42,6.36.01,1.04-.23.03-3.07,2.64-2.01v7.49c-1.54.76-1.65-2.18-3.23-2.84-1.8-.75-3.86-.72-5.77-.66v12.01c6.3.1,10.58,1.16,14.99-4.01l-2.49,7h-20.5v-1.98c.82-.06,3-.97,3-1.52v-24.5c0-.18-3.11-.32-3-2h19.5Z"/>
    <path d="M360.34,292.77c1.47,1.47,2.1,6.44-.26,7.74-8.97-16.66-24.24-1.97-16.7,12.72,3.98,7.75,11,7.03,17.68,3.28l.51,2c-27.89,17.44-37.6-31.38-7.58-27.9,1.25.14,5.63,1.43,6.35,2.15Z"/>
    <path d="M440.88,292.85c.28.38,1.42,6.53,1.19,6.78-4-.3-3.53-4.82-7.7-5.78-17.94-4.14-15.29,26.3-.87,25.72,3.12-.13,5.67-3.16,8.58-2.44-7.92,8.83-24.48,5.48-26.01-6.97s5.04-20.46,17.4-19.43c1.2.1,7,1.55,7.42,2.11Z"/>
    <path d="M258.26,321.37c.15-1.32,2.03-1.91,2.49-3.02.92-2.23.98-19.32.57-22.54-.28-2.18-1.02-2.77-2.06-4.43l9.99-1.01c-3.92,8.49-1.21,18.75-1.99,28l9.51.4,1.5,2.6h-20Z"/>
    <path d="M475.16,291l-3.08,3.46c1.37,8.49-2.9,19.89,3.08,26.52h-12c5.98-6.63,1.71-18.03,3.08-26.52l-3.08-3.46h12Z"/>
    <path d="M314.44,291.12l-3.08,3.46c1.37,8.49-2.9,19.89,3.08,26.52h-12c5.98-6.63,1.71-18.03,3.08-26.52l-3.08-3.46h12Z"/>
  </g>
  <path d="M169.71,302.38c.28,2.59-1.44,2.8-3.45,3.04-12.95,1.53-27.44-2.14-40.55-1.06.38-1.82,1.97-1.86,3.46-2.03,9.27-1.04,21.36.3,31.08.08,3.33-.07,5.96-1.88,9.46-.04Z"/>
  <path d="M611.71,302.37l-1.48,2c-12.68-.95-25.42,2.11-38.07,1.05-2.26-.19-4.66.13-4.45-3.05h44Z"/>
  <path d="M348.96,358.13c-4.77-4.7,4.81-12.71,8.26-5.76,2.99,6.02-4.69,9.28-8.26,5.76Z"/>
  <path d="M347.71,107.37c16.86-1.23,24.23-21.92,8.35-30.88-5.34,1.52,2.28,5.27,4.04,8.99,2.5,5.31,1.97,8.44-1.86,12.92-3.26,3.83-8.97,4.59-10.53,8.96ZM345.72,90.37c-.71,6.59,7.18,4.29,8-.55,1.88-11.1-16.29-10.72-17.93,3.15-.49,4.18,1.11,16.07,6.9,10.91-4.39-6.19-4.16-16.68,4.3-18.35,2.57.41,3.64,2.31,3.72,4.84h-4.99Z"/>
  <path d="M345.72,90.37h4.99c-.07-2.53-1.15-4.44-3.72-4.85-8.46,1.67-8.69,12.16-4.3,18.35-5.78,5.16-7.39-6.73-6.9-10.91,1.63-13.86,19.8-14.24,17.93-3.15-.82,4.84-8.71,7.14-8,.55Z"/>
  <path d="M347.71,107.37c1.56-4.37,7.26-5.14,10.53-8.96,3.82-4.48,4.36-7.62,1.86-12.92-1.76-3.72-9.38-7.47-4.04-8.99,15.88,8.96,8.51,29.65-8.35,30.88Z"/>
</svg>