<?xml version="1.0" encoding="UTF-8"?>
<svg id="Layer_1" xmlns="http://www.w3.org/2000/svg" version="1.1" viewBox="0 0 1152.56 448.77">
  <!-- Generator: Adobe Illustrator 29.1.0, SVG Export Plug-In . SVG Version: 2.1.0 Build 142)  -->
  <defs>
    <style>
      .st0 {
        fill: none;
      }
    </style>
  </defs>
  <g>
    <path d="M788.71,141.38l7.57,2.91c7.96.69,16.79.15,22.42-5.91-3-.53-8.07-1.03-6.99-5.01,10.03,1.82,12.87,3.97,14.77-7.79.32-2-1.13-6.89.74-7.21,4.68-.82,2.72,12.77,1.49,14.99,16.48-.32,25.76-32.44,8.24-35.8-7.86-1.51-12.62,9.23-3.25,8.82-1.51,6.42-8.3,2.27-8.73-2.66-.89-10.23,13.86-12.88,21.14-5.25,10.86,11.38,2.56,31.22-10.36,37.44-3.9,1.87-7.63,1.83-10.77,3.23-2.67,1.18-5.54,5.03-9.27,6.73-7.47,3.41-16.14,4.14-24.06,2.06-2.88-.76-9.86-5.27-10.44-5.27-.47,0-6.2,3.76-8.23,4.48-11.25,4.03-20.39,1.87-30.19-4.36-4.76-3.03-5.13-2.9-9.8-5.2-12.18-6.01-20.83-15.7-17.84-30.28,2.08-10.15,14.5-17.34,21.98-8.86s-3.92,16.67-6.41,10.4c-1.02-2.56,3.37-.75,4.58-2.41,3.23-4.46-6.08-12.41-12.59-4.58-9.45,11.36.13,28.33,13,31.5-1.02-4.34-3.3-7.85-1.08-12.41l3.08-.59c-.19,11.98,3.13,18.09,16,14.01l-.58,3.08-6.41.92c-.39,1.78.52,1.98,1.65,2.84,5.91,4.49,19.79,4.56,25.85.16l-15.06-9.96c-19.72-21.05-21.34-61.01,8.56-73.53,16.44-6.89,33.57-1.12,44.5,12.47,19.33,24.03,5.6,62.8-23.5,71.02ZM787.7,120.38c-1.66,1.85,8.13,7.53,9.03,9.54l2,.07c15.58-11.71,22.08-31.95,14.15-50.3-17.16-39.76-77.88-16.68-59.94,30.94,2.61,6.93,7.65,16.44,14.76,19.31l11.98-9.07c-14.45-10.31-26.37-18.24-17.83-37.85,5.66-12.99,21.35-18.36,33.54-10.84,17.38,10.71,13.92,44.58-7.69,48.2ZM780.44,72.62c-13.68,2.33-23.75,23.53-13.63,34.15,2.03,2.13,15.85,11.43,18.22,11.35s8.62-3.65,10.59-5.32c14.63-12.37,6.73-43.9-15.19-40.18ZM770.7,132.36c7.55,3.45,14.59,5.9,22,.5-6.75-11.82-13.82-8.99-22-.5Z"/>
    <path d="M781.71,373.37c10.05-14.32,35.07-29.14,52.32-20.83,18.89,9.1,2.88,33.4-9.02,22.51-7.93-7.25,3.43-16.51,4.6-9.05.22,1.41-3.78,4.01-.95,5.9,5.63,3.76,14.37-6.27,4.54-13.54-9.29-6.88-26.4.03-34.52,6.5-2.44,1.95-12.15,11.72-11.55,14.6.73,3.48,11.52,9.36,15.15,9.82,13.2,1.7,17.29-10.51,4.42-12.9,3.19,12.86-11.47,4.63-4.27-2.05,8.94-8.3,22.91,5.98,13.81,16.09-8.55,9.5-27.23,1.45-34.18-6.97-8.21,6.94-14.18,11.72-25.81,9.87-12.52-1.99-10.77-21.87,2.95-21.03,9.65.59,7.92,15.37-.51,9.56-.2-1,3.98-4.58.45-5.46-4.78-1.19-9.91,7.42-3.36,11.39,6.91,4.2,18.83-2.51,21.46-9.46-7.07-13.9-21.38-26.1-37.96-23.85-4.76.65-9.73,3.51-10.41,8.68-1.29,9.8,14.45,10.82,7.82.76,2.17-3.47,6.48-.06,7.01,3.02,1.58,9.19-12,11.75-17.44,4.39-7.63-10.31,2.21-20.59,13.04-21.82,16.35-1.85,35.66,9.07,42.41,23.88Z"/>
    <g>
      <path d="M925.77,182.37l20.49,45.01,19.01-45.01h16.5l-5.94,8.56c1.09,17.39-1.65,36.86-.11,53.99.54,6.02,1.53,5.37,5.74,8.22.91.62,1.82-.17,1.3,2.23h-26c-.84-2.52,6-4.97,6-6.5v-46.5l-19.49,44.07-4.62-.69-18.89-42.38v44.5c0,1.79,4.71,5.81,7,5.52v1.98s-20,0-20,0c-.53-2.41.41-1.62,1.31-2.23,3.73-2.54,5.21-1.65,5.75-7.21,1.07-10.95,1.45-43.68-.13-54-.24-1.55-1.45-4.38-2.48-5.52-1.86-2.04-5.06-1.08-4.45-4.05h19Z"/>
      <path d="M775.29,182.37l-6,6.5v26.5l28-1.01c-3.87-10.42,4.23-25.04-7-31.99h26c-3.55,3.79-6.13,4.84-6.91,10.59-1.48,10.95-1.18,39.58-.14,50.96.18,2,.2,2.95,1.17,4.83,1.55,2.98,5.61,3.23,5.87,6.63h-26v-1.99c2.03.22,6-2.79,6-4.51v-28.5h-27v28.5c0,1.53,6.84,3.98,6,6.5h-26c-.36-3.23,3.51-2.08,5.44-5.06,1.46-2.24,1.4-4.86,1.6-7.4.92-11.85,1.45-39.73-.13-50.95-.78-5.55-3.5-6.06-6.91-9.59h26Z"/>
      <path d="M887,182.37l1.99,16c-3.01,3.07-6.31-10-10.49-10h-23.5v27h15.5c4.73,0,6.58-8.02,8-7.98l1.5,1.48v19.5l-2.93-.05c-.02-2.51-3.05-7.95-5.57-7.95h-16.5v29h20.5c2.81,0,9.07-3.64,10.94-6.06,1.63-2.1,1.86-7.05,5.05-5.93,2.04.72.9,1.8.76,2.71-.78,4.88-2.91,10.2-3.25,15.28h-54c-.52-2.4.39-1.62,1.3-2.23,4.22-2.85,5.2-2.2,5.74-8.22,1.05-11.66,1.43-41.83-.14-52.96-.83-5.89-3.73-5.57-6.91-9.59h52Z"/>
      <path d="M575.53,255.37h-27c-.43-3,3.58-3.1,4.52-4.99,2.15-4.33-3.91-12.62-4.41-17.41l-25.97-.45-5.19,16.33c.36,3.58,6.27,2.58,6.05,6.53h-18.5l-1.02-2.01c5.38-2.25,6.78-4.94,9-10.01,7.12-16.3,11.7-34.53,19.34-50.74,1.28-4.55-4.31-6.09-3.82-10.23l11.51-1.05,2.3,1.74,27.18,66.81c1.68,2.21,6.22,2.06,6,5.5ZM545.53,226.37c-3.12-7.25-5.46-16.68-8.97-23.53-.48-.94-.56-2.38-2.02-2.47l-9.01,26h20Z"/>
      <path d="M730.89,186.37v17l-3.08-.62c-6.08-19.08-30.96-23.05-39.21-3.17-10.18,24.53,4.12,61,35.19,47.19,1.29-.57,7.2-6.05,8.09-1.89.36,1.66-5.88,5.86-7.3,6.68-22.75,13.04-50.31-.59-52.68-26.71-3.34-36.97,26.99-52.74,58.98-38.48Z"/>
      <path d="M1019.27,182.37l-4.59,6.06,16.07,30.94,13.35-28.76c1.57-4.77-4.68-4.37-4.84-8.25h19c-1.38,3.65-4.79,4.69-7.19,8.31-3.37,5.06-16.7,32.29-17.57,37.43-.64,3.77-.82,16.01-.02,19.55,1.07,4.79,5.41,4.34,7.79,7.71h-28c-.45-2.62.37-1.55,1.42-2.09,2.52-1.29,4.46-.71,5.36-4.62.68-2.96.7-19.68-.03-22.54-2.26-8.84-14.77-23.47-17.96-33.04l-8.8-10.7h26Z"/>
      <path d="M619.04,182.37v1.98c-2.96-.16-7,3.92-7,6.52v57c.88,1.43,1.99,1.38,3.45,1.55,7.09.83,21.55-.18,26.59-5.51,2.99-3.16,2.82-8.3,6.95-7.54l-4,18.99h-51.5l-1.02-2.01c2.62-1.48,5.84-2.02,6.49-5.52-1.3-17.93,1.82-38.42.09-56.03-.64-6.56-4.3-4.43-6.06-9.44h26Z"/>
    </g>
    <path d="M713.2,358.37c3.54,1,1.02,5.91-2.99,5.01l-115.04-1.08c-2.68.32-1.86,5.2-7.97,5.19-13.12,0-6.29-20.86,4.74-12.13,2.46,1.95.35,3.02,4.26,3.02h117Z"/>
    <path d="M970.2,358.37c1.32-.37,3.1-4.5,6.05-5.01,8.15-1.41,11.9,9.92,4.19,13.27-6.33,2.75-7.23-3.64-12.19-4.31-24.69.37-49.4-.3-74.09.01-12.08.15-24.72,2.19-36.97,1.05-6.92-.64-4.44-5.01-2.99-5.01h116Z"/>
    <path d="M704.2,117.37c1.09.31,1.86,2.28,1.48,3.48l-2.49,1.51-106.05-1.05c-4.96.67-5.85,7.06-12.19,4.31-7.71-3.35-3.96-14.68,4.19-13.27,2.71.47,5.38,5.01,6.05,5.01h109Z"/>
    <path d="M858.82,122.27l-.66-2.92,3.08-1.95,107,.05c2.3-.28,2.52-5.14,7.97-5.13,10.86.02,7.63,18.08-3.25,13.3-2.48-1.09-3.56-4.56-6.7-4.3l-107.44.96Z"/>
    <path d="M1105.46,216.55c10.06-1.22,14.24,12.2,5.61,16.69-12.88,6.7-19.32-15.02-5.61-16.69Z"/>
    <path d="M457.46,216.55c10.06-1.22,14.24,12.2,5.61,16.69-12.88,6.7-19.32-15.02-5.61-16.69Z"/>
    <g>
      <path d="M604.09,321.37v-2s2,0,2,0v-25.5c0-.42-2.11-1.46-2-2.5h16.5c.34,0,4.8,2.06,5.46,2.54,6.62,4.76,7.59,17.04,2.06,22.98-1.03,1.11-7.5,4.48-8.52,4.48h-15.5ZM612.09,318.37c18.15,3.61,17.56-28.48,0-25v25Z"/>
      <path d="M949.34,291.37l1,6.99c-3.07.42-1.74-2.38-4.74-3.75-1.42-.64-8.63-1.87-9.26-1.25v11.01c4.08.72,6.48-.57,10-2v7.99s-2.54-3.06-2.54-3.06l-8.46.08c1.56,3.43,1.56,7.56,0,10.98,6.52-.04,11.4,1.48,15.99-3.99l-.99,7h-23c.8-1.81,2.54-2.23,2.98-4.52.5-2.62.34-20.64-.49-22.46-.51-1.12-2.31-1.69-2.49-3.02h22Z"/>
      <path d="M988.27,292.54c.26.42,1.48,6.96-.34,6.81-.59-.05-2.25-3.53-3.51-4.47-3.05-2.26-11.04-2.56-11.01,1.99.04,6.61,23,6.26,15.9,19.87-3.66,7.01-22.99,7.4-19.86-3.37,2.87-.23,3.07,3.04,5.01,4.47,3.5,2.59,10.09,2.02,10.09-2.97,0-5.3-7.11-5.6-10.46-7.65-11.19-6.87-4.52-18.08,7.76-16.78.99.11,6.2,1.72,6.43,2.09Z"/>
      <path d="M833.35,320.89h-12s2.97-2.07,2.97-2.07l-2.06-6.82-10.79.02-.12,8.88h-6.99c-.69-2.77,1.74-1.71,2.8-3.65,1.44-2.64,7.4-18.67,7.8-21.34.31-2.05-.16-3.11-.62-5l5.51-.06c4.78,9.86,6.6,21.37,13.5,30.05ZM820.34,309.9l-3.98-10.99-3,10.99c2.49-1.36,4.49-1.36,6.98,0Z"/>
      <path d="M666.08,291.37c2.26,1.62,1.44,4.57,1.49,7-3.7-5.01-6.81-5.61-12.99-5v11.01c2-.24,4.51.42,6.36.01,1.04-.23.03-3.07,2.64-2.01v7.49c-1.54.76-1.65-2.18-3.23-2.84-1.8-.75-3.86-.72-5.77-.66v12.01c6.3.1,10.58,1.16,14.99-4.01l-2.49,7h-20.5v-1.98c.82-.06,3-.97,3-1.52v-24.5c0-.18-3.11-.32-3-2h19.5Z"/>
      <path d="M790.33,292.77c1.47,1.47,2.1,6.44-.26,7.74-8.97-16.66-24.24-1.97-16.7,12.72,3.98,7.75,11,7.03,17.68,3.28l.51,2c-27.89,17.44-37.6-31.38-7.58-27.9,1.25.14,5.63,1.43,6.35,2.15Z"/>
      <path d="M870.87,292.85c.28.38,1.42,6.53,1.19,6.78-4-.3-3.53-4.82-7.7-5.78-17.94-4.14-15.29,26.3-.87,25.72,3.12-.13,5.67-3.16,8.58-2.44-7.92,8.83-24.48,5.48-26.01-6.97s5.04-20.46,17.4-19.43c1.2.1,7,1.55,7.42,2.11Z"/>
      <path d="M688.25,321.37c.15-1.32,2.03-1.91,2.49-3.02.92-2.23.98-19.32.57-22.54-.28-2.18-1.02-2.77-2.06-4.43l9.99-1.01c-3.92,8.49-1.21,18.75-1.99,28l9.51.4,1.5,2.6h-20Z"/>
      <path d="M905.15,291l-3.08,3.46c1.37,8.49-2.9,19.89,3.08,26.52h-12c5.98-6.63,1.71-18.03,3.08-26.52l-3.08-3.46h12Z"/>
      <path d="M744.43,291.12l-3.08,3.46c1.37,8.49-2.9,19.89,3.08,26.52h-12c5.98-6.63,1.71-18.03,3.08-26.52l-3.08-3.46h12Z"/>
    </g>
    <path d="M599.69,302.38c.28,2.59-1.44,2.8-3.45,3.04-12.95,1.53-27.44-2.14-40.55-1.06.38-1.82,1.97-1.86,3.46-2.03,9.27-1.04,21.36.3,31.08.08,3.33-.07,5.96-1.88,9.46-.04Z"/>
    <path d="M1041.7,302.37l-1.48,2c-12.68-.95-25.42,2.11-38.07,1.05-2.26-.19-4.66.13-4.45-3.05h44Z"/>
    <path d="M778.95,358.13c-4.77-4.7,4.81-12.71,8.26-5.76,2.99,6.02-4.69,9.28-8.26,5.76Z"/>
    <path d="M777.7,107.37c16.86-1.23,24.23-21.92,8.35-30.88-5.34,1.52,2.28,5.27,4.04,8.99,2.5,5.31,1.97,8.44-1.86,12.92-3.26,3.83-8.97,4.59-10.53,8.96ZM775.71,90.37c-.71,6.59,7.18,4.29,8-.55,1.88-11.1-16.29-10.72-17.93,3.15-.49,4.18,1.11,16.07,6.9,10.91-4.39-6.19-4.16-16.68,4.3-18.35,2.57.41,3.64,2.31,3.72,4.84h-4.99Z"/>
    <path d="M775.71,90.37h4.99c-.07-2.53-1.15-4.44-3.72-4.85-8.46,1.67-8.69,12.16-4.3,18.35-5.78,5.16-7.39-6.73-6.9-10.91,1.63-13.86,19.8-14.24,17.93-3.15-.82,4.84-8.71,7.14-8,.55Z"/>
    <path d="M777.7,107.37c1.56-4.37,7.26-5.14,10.53-8.96,3.82-4.48,4.36-7.62,1.86-12.92-1.76-3.72-9.38-7.47-4.04-8.99,15.88,8.96,8.51,29.65-8.35,30.88Z"/>
  </g>
  <g>
    <polyline class="st0" points="211.2 144.37 212.7 142.87 212.7 68.37"/>
    <line class="st0" x1="211.2" y1="324.37" x2="211.7" y2="312.37"/>
    <path class="st0" d="M211.7,400.37v-64.5c0-.62-2.76-4.31-3.99-4.5"/>
    <path class="st0" d="M191.18,289.39c4.34,3.79,15.06,7.2,20.52,9.98"/>
    <path class="st0" d="M189.84,329.38c.1,1.69-.7,2.88-1.32,4.05-2.19,2.86-1.68,7.43.63,11.05-7.38-3.21-9.61-14.97.69-15.1Z"/>
    <path class="st0" d="M200.89,328.91c-.12-3.86-3.07-6.73-3.04-10.53,2.26-.32,2.58-.04,3.86,1.63,5.52,7.21,3.88,20.15-3.5,24.11-1.52-.07-3.06-.97-4.47-3.03-.16-.23-.28-.44-.4-.66,4.02-.4,7.7-6.6,7.55-11.52Z"/>
    <path class="st0" d="M213.78,109.94c.09,2.04.13,2.82.2,4.47-5.09-4.54-9.9-8.71-17.14-6.04,6.28-8.73,13.93-17.68,16.01-28.48l-2.51-.53c-2.41,4.3-4.15,9.08-6.69,13.33-3.51,5.88-7.46,11.78-10.73,17.22-1.07,1.78-3.85,3.17-5.28,5.77-7.16,13.08,10.46,19.82,12.79,10.73,1.34-5.21-3.59-5.07-6.08-1.04-6.8-7.09,3.55-15.1,11.87-10.85,2.54,1.3,7.63,8.89,7.63,11.37v17s-1.5,1.5-1.5,1.5h-44.5s45.01-76.99,45.01-76.99c1.28-.31,1.64,1.86,1.65,2.63.19,13.19-1.34,26.65-.73,39.92Z"/>
    <path d="M84.85,291.37c2.52-6.17,7.13-10.21,9.87-16.62,1.38-3.23,1.94-7.48,3.13-10.37l2.56.95c2.19,3.41-8.02,27.55-15.56,26.04Z"/>
    <path d="M114.36,249.36c-4.15-1.96,1.64-13.87,4.48-10.99l-.49,4.01-4,6.98Z"/>
    <path d="M47.23,180.44c10.57,1.14,8.91,14.25,3.29,12.83-3.33-.84-1.49-7.65-7.97-5.72-7.69,2.29-4.93,15.79,3,17.6,21.94,5.02,21.81-25.67,19.3-39.78,4.4.16,5.65,8.1,5.99,11.5,1.65,16.69-4.49,37.79-25.26,34.25-20.9-3.56-16.95-32.7,1.66-30.69Z"/>
    <path d="M195.84,389.37c-3.97.42-5.76-3.86-8.52-5.96-6.88-5.23-15.72-10.55-24.83-9.97-7.68.49-15.37,6-14.59,14.32.73,7.75,10.69,12.79,14.56,4.67.37-1.49-4.97-4.17-1.35-7.79,4.96-4.96,13.48,6.15,5.66,14.16-11.05,11.33-29.97-2.2-23.62-18.62,8.43-21.77,48.44-10.53,52.69,9.19Z"/>
    <path d="M66.49,242.72c9.18,8.54,9.11,30.14,4.08,40.88-.7,1.5-3.29,6.1-5.21,5.77-2.46-.43-.5-2.52-.32-3.29,2.89-12.09,7.96-32.93-5.24-41.16-10.94-6.83-26.31,7.09-12.44,14.4,7.62-13.28,13.62,5.32,1.97,6.11-11.6.78-17.65-13.27-10.01-22.09,6.85-7.91,19.71-7.58,27.18-.62Z"/>
    <path d="M153.16,81.56c8.17,3.54,18.02,1.1,25.72-2.64,2.28-1.11,14.03-10.55,14.95-9.54,2.82,3.09-8.36,11.41-10.69,12.79-10.57,6.28-27.53,9.71-37.77,1.17-14.31-11.92-1.53-36.48,14.37-29.36,9.8,4.39,6.29,17.28.75,16.22-6.77-2.55-.11-7.89-3.31-9.92-9.65-6.12-19.71,14.47-4.02,21.27Z"/>
    <path d="M121.56,83.19c-6.59-1.93-3.4-11.67,3.56-9.64,6.59,1.93,3.4,11.67-3.56,9.64Z"/>
    <path d="M129.38,375.38c2.92,6.09-5.82,9.17-9.29,5.75-5.16-5.1,5.7-13.23,9.29-5.75Z"/>
    <path d="M35.27,220.3c5.31-3.85,11.37,3.81,7.33,7.83-4.92,4.9-13.57-3.3-7.33-7.83Z"/>
    <path d="M94.34,227.4c-4.27,0-4.99-7.66,0-7.66s4.27,7.66,0,7.66Z"/>
    <path d="M197.14,360.61c2.83,2.6,15.18,20.82,12.7,23.75-2.05.43-2.32-1.02-3.19-2.3-3.28-4.84-8.96-13.44-11.66-18.34-.54-.98-1.8-3.7-1.14-4.35,1.29-1.27,2.49.51,3.29,1.24Z"/>
    <path d="M120.13,253.58c1.64.48,3.97,2.89,1.72,4.31-5.47-1-12.21.99-10.82,7.74,1.03,5,2.94,3.02,5.59,3.03,6.16.03,1.15,6.49-3.77,5.29-12.74-3.1-6.11-24.33,7.28-20.37Z"/>
    <path d="M101.56,183.17c-6.46-1.48-8.99-15.07-8.71-20.79,6-.05,3.89,12.53,6.96,14.59,1.03.69,2.88-.61,4.31-.4,5.43.79,5.8,8.51-2.56,6.59Z"/>
    <path d="M120.33,195.37c-3.33-.01-7.18.93-6.48,5,9.37-3.13,3.98,8.88-2.52,3.02-6.77-6.1,5.02-15.05,9.04-10.04.56.7,1.06,1.77-.03,2.01Z"/>
    <path d="M146.36,289.35c4.48,3.59,6.78,10.58-.52,12.02,2.87-12.91-14.39-14.66-17.99-2.43l-3.02-.56c.7-10.44,13.36-15.57,21.52-9.03Z"/>
    <path d="M155.85,184.37c-.46-2.08,1.09-2.27,2.27-3.22,3.69-2.94,10.26-7.17,14.39-9.6.82-.49,4.8-3.32,5.32-.66.51,2.63-19.13,15.92-21.99,13.48Z"/>
    <path d="M153.85,197.38l3.09.58c1.86,9.55,6.89,21.35,1.41,30.39-2.42.03-1.29-11.3-1.51-13.47-.6-5.86-2.15-11.69-2.98-17.51Z"/>
    <path d="M135.84,238.37c-5.06-.76-5.29-11.59-4.98-15.49.1-1.33,3.95-18,6.98-14.51-2.26,10.42-4.12,19.22-2,29.99Z"/>
    <path class="st0" d="M217.82,206.11v-15.04"/>
    <path class="st0" d="M217.82,184.34c-8.39-.02-16.77,1.51-24.97,5.03l18.19-32.3c2.68-4.24,3.63-6.09,6.78-6.18"/>
    <path class="st0" d="M217.33,206.33l-21.49-9.97c.89-2.14,4.21-2.68,6.22-3.27,4.79-1.4,10.23-2.07,15.76-2.02v15.04s-.49.22-.49.22Z"/>
    <path class="st0" d="M183.85,275.37c3.69.13,15.47,11.97,16.49,11.98,5.12.05-3.95-7.83-5.17-8.81-6.15-4.9-15.95-7.07-18.33-14.17h38v35s-22.51-9.99-22.51-9.99l-8.48-14.01Z"/>
    <path class="st0" d="M201.34,231.36l12.5,26.01h-18c-.78-9.13,1.46-17.92,5.5-26.01Z"/>
    <polygon class="st0" points="190.84 201.38 205.52 207.19 211.83 211.36 201.4 218.36 190.84 201.38"/>
    <polygon class="st0" points="149.84 181.38 205.84 152.38 179.35 197.33 149.84 181.38"/>
    <path class="st0" d="M212.85,67.38c1.28-.31,1.64,1.86,1.65,2.63.19,13.19-1.34,26.65-.73,39.92.09,2.04.13,2.82.2,4.47-5.09-4.54-9.9-8.71-17.14-6.04,6.28-8.73,13.93-17.68,16.01-28.48l-2.51-.53c-2.41,4.3-4.15,9.08-6.69,13.33-3.51,5.88-7.46,11.78-10.73,17.22-1.07,1.78-3.85,3.17-5.28,5.77-7.16,13.08,10.46,19.82,12.79,10.73,1.34-5.21-3.59-5.07-6.08-1.04-6.8-7.09,3.55-15.1,11.87-10.85,2.54,1.3,7.63,8.89,7.63,11.37v17s-1.5,1.5-1.5,1.5h-44.5s45.01-76.99,45.01-76.99Z"/>
    <path class="st0" d="M194.87,152.86c-1.32.78-10.56,5.9-11.03,5.5l12.99-7.99c.55,2.66-.67,1.72-1.97,2.48Z"/>
    <path class="st0" d="M214.84,305.36l-12.29.03-5.71-8.01c.62-.51,10.93,4.02,12.67,4.82,1.52.69,4.78,1.65,5.32,3.16Z"/>
    <path class="st0" d="M114.84,233.87c.51-.6,1.17-1.49,1.99-1.5.25.19,1.49,5.08,2.01,6,.17.31,1.5,1.05,2.2,2.26,5.85,10.07,11.61,20.31,16.8,30.73l-64,33,24-39.99c2.57-6.26,12.97-25.75,17-30.5Z"/>
    <polygon class="st0" points="206.84 312.38 214.85 312.37 214.83 323.37 206.84 312.38"/>
    <path class="st0" d="M141.82,275.37l17.02,29.99h-52.99s9.48-3.06,9.48-3.06l15.51,2.07c3.26-2.78-11.74-6.07-13.5-6.08-11.52-.05-15.75,7.01-22.31,7.83-2.72.34-5.34-.23-8.19-.05-1.97.12-1.42-1.23-.99-1.68l55.97-29.01Z"/>
    <path class="st0" d="M202.87,318.28c1.7,2.88,4.32,8.04,4.43,11.86.18,6.24-4.35,14.19-9.09,13.98-1.52-.07-3.06-.97-4.47-3.03-.16-.23-.28-.44-.4-.66-2.12-3.87,1.83-5.58,1.59-9.72-3.1.04-5.18,1.11-6.42,2.72-2.19,2.86-1.68,7.43.63,11.05,1.72,2.69,4.43,4.85,7.76,5.38,10.4,1.63,15.75-9.56,14.87-19.96l3.06,3.98v64s-53-85.5-53-85.5h36.5s4.53,5.9,4.53,5.9Z"/>
    <path class="st0" d="M177.82,201.87l-17.99,32.5c-2.97,2.21-11.71-28.8-11.99-31.5-.51-4.91.37-10.5,0-15.5l29.98,14.5Z"/>
    <path class="st0" d="M168.64,264.58l12.2,19.78-32.96-15.48c3.07-7.77,13.96-3.66,20.76-4.3Z"/>
    <polygon class="st0" points="193.84 305.37 165.84 305.37 149.35 275.36 184.8 291.91 193.84 305.37"/>
    <path class="st0" d="M178.57,161.1l-29.73,15.27,14.2-24.78,20.79-1.21c-.2,4.5-5.53,6.03-5.26,10.73Z"/>
    <polygon class="st0" points="116.83 218.37 80.85 154.38 136.84 182.39 116.83 218.37"/>
    <path class="st0" d="M139.83,259.37l-19.64-33.49,19.15-34.52c1.71.07,1.58,22.09,1.54,24.55-.04,2.36-1.05,4.55-1.08,6.92-.16,12.17.21,24.38.03,36.54Z"/>
    <path class="st0" d="M134.35,158.38l1.49,3.99c10.88-3.85-2.37-12.51-6.9-5.39-5.64,8.86,6.8,16.42,14.89,13.41l-4.6,6.91-49.39-24.93c.62-1.67,7.22-1.27,8.29-1.01.93.23,1.34,2.5,2.71,3.49,6.19,4.47,15.5,6.22,23,5.52v-2.99s-11.01-1.5-11.01-1.5l-9.99-4.5,52.99-1-9.7,16.01c-5.92.71-18.49-.01-11.78-8.01Z"/>
    <path class="st0" d="M173.45,258.15l-5.63-8.25c6.51-3.88,12.88-8.28,21.02-7.53-1.19-6.19-12.38-2.18-16.34.16-1.47.87-4.97,4.84-6.16,4.82-1.3-.02-1.39-1.12-.5-2.48,1.67-2.54,8.11-6.94,9-9.01.58-1.36-.22-1.68-1.5-1.5-4.1.57-6.14,5.13-9.48,7.02l20.98-37,11.94,20.5c-5.35,10.64-9.53,20.12-7.92,32.5l-15.4.78Z"/>
    <path class="st0" d="M163.83,258.37h-7.98s3.01-6.99,3.01-6.99c1.71-1.46,4.78,5.87,4.97,6.99Z"/>
    <polygon class="st0" points="144.84 220.37 154.76 241.87 144.84 259.37 144.84 220.37"/>
    <path d="M217.82,150.89V43.27s-.02.04-.04.06h-1.4c-6.35-8.5-23.75-5.97-25.35,4.8-1.01,6.77,5.76,12.97,10.8,6.72-1.04-4.6-5.36-.02-5.04-5,.67-10.44,19.83-7.42,16.81,3.77l-53.97,90.54-84.81-.28c-3.4-7.56-12.52-15.15-12.61-23.84-.1-9.15,6.84-17.47,16.69-14.23,3.88,1.28,5.4,7.91,2.42,8.55-2.25.48-3.33-4.92-5.48-1.48-1.98,7.99,14.12,8.93,12.99-2.91-.87-9.07-12.6-12.47-19.99-9.61,1.69-5.3,10.5-9.92,15.73-10.75,6.1-.96,16.47.64,17.26,8.35.65,6.33-6.41,8.72-7,5.89-.55-2.66,3.98-4.23.48-6.48-7.99.94-7.04,11.19.24,12.81,10.13,2.24,15.42-11.13,10.28-18.8,16.36,4.8,19.93,27.09,7.49,37.98-4.58,4.01-12.44,6.35-17.87,2.88-2.49-1.59-1.8-4.23-4.62-3.86,1.07,10.66,13.6,11.78,21.94,7.44,19.11-9.95,16.77-40.34-2.94-48.95-25.5-11.13-52.45,4.87-54.01,32.5-17.49-8.52-31.94,14.86-19.54,28.05,4.53,4.82,16.22,6.83,15.55-2.05-20.57,2.78-14.04-31.73,4.02-17.53,21.22,30.73,37.35,64.71,55.75,97.19l-48.82,84.79c-6.51,5.59-21.76,8.89-22.93-3.04-.71-7.19,3.99-9.29,9.77-9.69,7.07-.49.86-6.26-5.28-5.78-19.37,1.51-12.1,35.61,8.49,30.07-6.35,16.61,2.89,40,19.32,47.17,25.32,11.04,61.98-4.87,50.45-36.45-2.96-8.11-11.84-17.59-21.15-16.68-5.4.53-12.59,6.36-11.44,12.21,1.14,5.76,8.4,4.15,7.33,1.75-6.5-4.17-.87-8.91,4.98-9.09,15.4-.46,23.85,30,10.52,39.09,2.24-9.92-7.37-22-17.06-14.55-10.9,8.39,3.85,16.74,5.04,11.03.5-2.14-2.91-2.02-3.07-3.06-1.36-8.79,15.41-2.33,7.62,7.63-7.59,9.7-28.87,6.69-37.47-.63-3.92-3.34-6.68-8.89-9.08-13.41,6.7,2.34,9.73,4.22,16.68,1.17,7.9-3.46,12.11-13.45,6.34-20.7-2.91-3.66-8.38-5.56-10.05,0-.34,2.64,3.26,1.24,4.8,2.75,5.46,5.38-2.75,16.99-13.14,11.64-13.66-7.03.85-29.96,13.83-28.91l75.88.2,59.52,96.53c-3.14,8.06-19.49,8.95-21.71-.42-.84-3.53,4.88-2.47,2.39-7.31-2.61-3.9-12.36,3.68-6.39,13.4,4.03,6.56,12.99,7.64,19.91,6.21,2.71-.56,7.71-3.72,10.92-5.3v-166.42l-11.83-24.19,11.35-9.68.48.45v-9.67l-.49.22-21.49-9.97c.89-2.14,4.21-2.68,6.22-3.27,4.79-1.4,10.23-2.07,15.76-2.02v-6.73c-8.39-.02-16.77,1.51-24.97,5.03l18.19-32.3c2.68-4.24,3.63-6.09,6.78-6.18ZM212.85,67.38c1.28-.31,1.64,1.86,1.65,2.63.19,13.19-1.34,26.65-.73,39.92.09,2.04.13,2.82.2,4.47-5.09-4.54-9.9-8.71-17.14-6.04,6.28-8.73,13.93-17.68,16.01-28.48l-2.51-.53c-2.41,4.3-4.15,9.08-6.69,13.33-3.51,5.88-7.46,11.78-10.73,17.22-1.07,1.78-3.85,3.17-5.28,5.77-7.16,13.08,10.46,19.82,12.79,10.73,1.34-5.21-3.59-5.07-6.08-1.04-6.8-7.09,3.55-15.1,11.87-10.85,2.54,1.3,7.63,8.89,7.63,11.37v17l-1.5,1.5h-44.5l45.01-76.99ZM194.87,152.86c-1.32.78-10.56,5.9-11.03,5.5l12.99-7.99c.55,2.66-.67,1.72-1.97,2.48ZM163.04,151.58l20.79-1.21c-.2,4.5-5.53,6.03-5.26,10.73l-29.73,15.27,14.2-24.78ZM188.85,257.38l-15.4.78-5.63-8.25c6.51-3.88,12.88-8.28,21.02-7.53-1.19-6.19-12.38-2.18-16.34.16-1.47.87-4.97,4.84-6.16,4.82-1.3-.02-1.39-1.12-.5-2.48,1.67-2.54,8.11-6.94,9-9.01.58-1.36-.22-1.68-1.5-1.5-4.1.57-6.14,5.13-9.48,7.02l20.98-37,11.94,20.5c-5.35,10.64-9.53,20.12-7.92,32.5ZM147.88,268.88c3.07-7.77,13.96-3.66,20.76-4.3l12.2,19.78-32.96-15.48ZM184.8,291.91l9.04,13.46h-28l-16.49-30.01,35.45,16.55ZM144.84,259.37v-39l9.92,21.5-9.92,17.5ZM155.85,258.37l3.01-6.99c1.71-1.46,4.78,5.87,4.97,6.99h-7.98ZM159.83,234.37c-2.97,2.21-11.71-28.8-11.99-31.5-.51-4.91.37-10.5,0-15.5l29.98,14.5-17.99,32.5ZM98.14,151.35c.93.23,1.34,2.5,2.71,3.49,6.19,4.47,15.5,6.22,23,5.52v-2.99s-11.01-1.5-11.01-1.5l-9.99-4.5,52.99-1-9.7,16.01c-5.92.71-18.49-.01-11.78-8.01l1.49,3.99c10.88-3.85-2.37-12.51-6.9-5.39-5.64,8.86,6.8,16.42,14.89,13.41l-4.6,6.91-49.39-24.93c.62-1.67,7.22-1.27,8.29-1.01ZM139.83,259.37l-19.64-33.49,19.15-34.52c1.71.07,1.58,22.09,1.54,24.55-.04,2.36-1.05,4.55-1.08,6.92-.16,12.17.21,24.38.03,36.54ZM80.85,154.38l56,28.01-20.01,35.98-35.98-63.99ZM73.84,304.36l24-39.99c2.57-6.26,12.97-25.75,17-30.5.51-.6,1.17-1.49,1.99-1.5.25.19,1.49,5.08,2.01,6,.17.31,1.5,1.05,2.2,2.26,5.85,10.07,11.61,20.31,16.8,30.73l-64,33ZM105.85,305.36l9.48-3.06,15.51,2.07c3.26-2.78-11.74-6.07-13.5-6.08-11.52-.05-15.75,7.01-22.31,7.83-2.72.34-5.34-.23-8.19-.05-1.97.12-1.42-1.23-.99-1.68l55.97-29.01,17.02,29.99h-52.99ZM214.84,397.87l-53-85.5h36.5l4.53,5.9c1.7,2.88,4.32,8.04,4.43,11.86.18,6.24-4.35,14.19-9.09,13.98-1.52-.07-3.06-.97-4.47-3.03-.16-.23-.28-.44-.4-.66-2.12-3.87,1.83-5.58,1.59-9.72-3.1.04-5.18,1.11-6.42,2.72-2.19,2.86-1.68,7.43.63,11.05,1.72,2.69,4.43,4.85,7.76,5.38,10.4,1.63,15.75-9.56,14.87-19.96l3.06,3.98v64ZM196.84,297.38c.62-.51,10.93,4.02,12.67,4.82,1.52.69,4.78,1.65,5.32,3.16l-12.29.03-5.71-8.01ZM214.83,323.37l-7.99-10.98,8-.02-.02,11ZM214.84,299.37l-22.51-9.99-8.48-14.01c3.69.13,15.47,11.97,16.49,11.98,5.12.05-3.95-7.83-5.17-8.81-6.15-4.9-15.95-7.07-18.33-14.17h38v35ZM213.84,257.37h-18c-.78-9.13,1.46-17.92,5.5-26.01l12.5,26.01ZM205.52,207.19l6.31,4.17-10.43,7-10.56-16.98,14.68,5.81ZM179.35,197.33l-29.51-15.94,55.99-29.01-26.48,44.95Z"/>
    <polyline class="st0" points="223.64 144.37 222.14 142.87 222.14 68.37"/>
    <path class="st0" d="M223.14,400.37v-64.5c0-.62,2.76-4.31,3.99-4.5"/>
    <path class="st0" d="M219.12,206.11v-15.04"/>
    <path class="st0" d="M243.65,289.39c-4.34,3.79-15.06,7.2-20.52,9.98"/>
    <path class="st0" d="M245,329.38c-.1,1.69.7,2.88,1.32,4.05,2.19,2.86,1.68,7.43-.63,11.05,7.38-3.21,9.61-14.97-.69-15.1Z"/>
    <path class="st0" d="M233.95,328.91c.12-3.86,3.07-6.73,3.04-10.53-2.26-.32-2.58-.04-3.86,1.63-5.52,7.21-3.88,20.15,3.5,24.11,1.52-.07,3.06-.97,4.47-3.03.16-.23.28-.44.4-.66-4.02-.4-7.7-6.6-7.55-11.52Z"/>
    <path class="st0" d="M221.06,109.94c-.09,2.04-.13,2.82-.2,4.47,5.09-4.54,9.9-8.71,17.14-6.04-6.28-8.73-13.93-17.68-16.01-28.48l2.51-.53c2.41,4.3,4.15,9.08,6.69,13.33,3.51,5.88,7.46,11.78,10.73,17.22,1.07,1.78,3.85,3.17,5.28,5.77,7.16,13.08-10.46,19.82-12.79,10.73-1.34-5.21,3.59-5.07,6.08-1.04,6.8-7.09-3.55-15.1-11.87-10.85-2.54,1.3-7.63,8.89-7.63,11.37v17l1.5,1.5h44.5l-45.01-76.99c-1.28-.31-1.64,1.86-1.65,2.63-.19,13.19,1.34,26.65.73,39.92Z"/>
    <path d="M349.99,291.37c-2.52-6.17-7.13-10.21-9.87-16.62-1.38-3.23-1.94-7.48-3.13-10.37l-2.56.95c-2.19,3.41,8.02,27.55,15.56,26.04Z"/>
    <path d="M320.48,249.36c4.15-1.96-1.64-13.87-4.48-10.99l.49,4.01,4,6.98Z"/>
    <path d="M387.61,180.44c-10.57,1.14-8.91,14.25-3.29,12.83,3.33-.84,1.49-7.65,7.97-5.72,7.69,2.29,4.93,15.79-3,17.6-21.94,5.02-21.81-25.67-19.3-39.78-4.4.16-5.65,8.1-5.99,11.5-1.65,16.69,4.49,37.79,25.26,34.25,20.9-3.56,16.95-32.7-1.66-30.69Z"/>
    <path d="M239,389.37c3.97.42,5.76-3.86,8.52-5.96,6.88-5.23,15.72-10.55,24.83-9.97,7.68.49,15.37,6,14.59,14.32-.73,7.75-10.69,12.79-14.56,4.67-.37-1.49,4.97-4.17,1.35-7.79-4.96-4.96-13.48,6.15-5.66,14.16,11.05,11.33,29.97-2.2,23.62-18.62-8.43-21.77-48.44-10.53-52.69,9.19Z"/>
    <path d="M368.34,242.72c-9.18,8.54-9.11,30.14-4.08,40.88.7,1.5,3.29,6.1,5.21,5.77,2.46-.43.5-2.52.32-3.29-2.89-12.09-7.96-32.93,5.24-41.16,10.94-6.83,26.31,7.09,12.44,14.4-7.62-13.28-13.62,5.32-1.97,6.11,11.6.78,17.65-13.27,10.01-22.09-6.85-7.91-19.71-7.58-27.18-.62Z"/>
    <path d="M281.68,81.56c-8.17,3.54-18.02,1.1-25.72-2.64-2.28-1.11-14.03-10.55-14.95-9.54-2.82,3.09,8.36,11.41,10.69,12.79,10.57,6.28,27.53,9.71,37.77,1.17,14.31-11.92,1.53-36.48-14.37-29.36-9.8,4.39-6.29,17.28-.75,16.22,6.77-2.55.11-7.89,3.31-9.92,9.65-6.12,19.71,14.47,4.02,21.27Z"/>
    <path d="M313.27,83.19c6.59-1.93,3.4-11.67-3.56-9.64-6.59,1.93-3.4,11.67,3.56,9.64Z"/>
    <path d="M305.46,375.38c-2.92,6.09,5.82,9.17,9.29,5.75,5.16-5.1-5.7-13.23-9.29-5.75Z"/>
    <path d="M399.57,220.3c-5.31-3.85-11.37,3.81-7.33,7.83,4.92,4.9,13.57-3.3,7.33-7.83Z"/>
    <path d="M340.5,227.4c4.27,0,4.99-7.66,0-7.66s-4.27,7.66,0,7.66Z"/>
    <path d="M237.7,360.61c-2.83,2.6-15.18,20.82-12.7,23.75,2.05.43,2.32-1.02,3.19-2.3,3.28-4.84,8.96-13.44,11.66-18.34.54-.98,1.8-3.7,1.14-4.35-1.29-1.27-2.49.51-3.29,1.24Z"/>
    <path d="M314.71,253.58c-1.64.48-3.97,2.89-1.72,4.31,5.47-1,12.21.99,10.82,7.74-1.03,5-2.94,3.02-5.59,3.03-6.16.03-1.15,6.49,3.77,5.29,12.74-3.1,6.11-24.33-7.28-20.37Z"/>
    <path d="M333.28,183.17c6.46-1.48,8.99-15.07,8.71-20.79-6-.05-3.89,12.53-6.96,14.59-1.03.69-2.88-.61-4.31-.4-5.43.79-5.8,8.51,2.56,6.59Z"/>
    <path d="M314.51,195.37c3.33-.01,7.18.93,6.48,5-9.37-3.13-3.98,8.88,2.52,3.02,6.77-6.1-5.02-15.05-9.04-10.04-.56.7-1.06,1.77.03,2.01Z"/>
    <path d="M288.47,289.35c-4.48,3.59-6.78,10.58.52,12.02-2.87-12.91,14.39-14.66,17.99-2.43l3.02-.56c-.7-10.44-13.36-15.57-21.52-9.03Z"/>
    <path d="M278.99,184.37c.46-2.08-1.09-2.27-2.27-3.22-3.69-2.94-10.26-7.17-14.39-9.6-.82-.49-4.8-3.32-5.32-.66-.51,2.63,19.13,15.92,21.99,13.48Z"/>
    <path d="M280.99,197.38l-3.09.58c-1.86,9.55-6.89,21.35-1.41,30.39,2.42.03,1.29-11.3,1.51-13.47.6-5.86,2.15-11.69,2.98-17.51Z"/>
    <path d="M299,238.37c5.06-.76,5.29-11.59,4.98-15.49-.1-1.33-3.95-18-6.98-14.51,2.26,10.42,4.12,19.22,2,29.99Z"/>
    <path class="st0" d="M217.01,184.34c8.39-.02,16.77,1.51,24.97,5.03l-18.19-32.3c-2.68-4.24-3.63-6.09-6.78-6.18"/>
    <path class="st0" d="M217.51,206.33l21.49-9.97c-.89-2.14-4.21-2.68-6.22-3.27-4.79-1.4-10.23-2.07-15.76-2.02v15.04l.49.22Z"/>
    <path class="st0" d="M250.99,275.37c-3.69.13-15.47,11.97-16.49,11.98-5.12.05,3.95-7.83,5.17-8.81,6.15-4.9,15.95-7.07,18.33-14.17h-38s0,35,0,35l22.51-9.99,8.48-14.01Z"/>
    <path class="st0" d="M233.5,231.36l-12.5,26.01h18c.78-9.13-1.46-17.92-5.5-26.01Z"/>
    <polygon class="st0" points="244 201.38 229.31 207.19 223 211.36 233.43 218.36 244 201.38"/>
    <polygon class="st0" points="284.99 181.38 229 152.38 255.49 197.33 284.99 181.38"/>
    <path class="st0" d="M221.98,67.38c-1.28-.31-1.64,1.86-1.65,2.63-.19,13.19,1.34,26.65.73,39.92-.09,2.04-.13,2.82-.2,4.47,5.09-4.54,9.9-8.71,17.14-6.04-6.28-8.73-13.93-17.68-16.01-28.48l2.51-.53c2.41,4.3,4.15,9.08,6.69,13.33,3.51,5.88,7.46,11.78,10.73,17.22,1.07,1.78,3.85,3.17,5.28,5.77,7.16,13.08-10.46,19.82-12.79,10.73-1.34-5.21,3.59-5.07,6.08-1.04,6.8-7.09-3.55-15.1-11.87-10.85-2.54,1.3-7.63,8.89-7.63,11.37v17l1.5,1.5h44.5l-45.01-76.99Z"/>
    <path class="st0" d="M239.97,152.86c1.32.78,10.56,5.9,11.03,5.5l-12.99-7.99c-.55,2.66.67,1.72,1.97,2.48Z"/>
    <path class="st0" d="M220,305.36l12.29.03,5.71-8.01c-.62-.51-10.93,4.02-12.67,4.82-1.52.69-4.78,1.65-5.32,3.16Z"/>
    <path class="st0" d="M319.99,233.87c-.51-.6-1.17-1.49-1.99-1.5-.25.19-1.49,5.08-2.01,6-.17.31-1.5,1.05-2.2,2.26-5.85,10.07-11.61,20.31-16.8,30.73l64,33-24-39.99c-2.57-6.26-12.97-25.75-17-30.5Z"/>
    <polygon class="st0" points="228 312.38 219.99 312.37 220.01 323.37 228 312.38"/>
    <path class="st0" d="M293.02,275.37l-17.02,29.99h52.99s-9.48-3.06-9.48-3.06l-15.51,2.07c-3.26-2.78,11.74-6.07,13.5-6.08,11.52-.05,15.75,7.01,22.31,7.83,2.72.34,5.34-.23,8.19-.05,1.97.12,1.42-1.23.99-1.68l-55.97-29.01Z"/>
    <path class="st0" d="M231.96,318.28c-1.7,2.88-4.32,8.04-4.43,11.86-.18,6.24,4.35,14.19,9.09,13.98,1.52-.07,3.06-.97,4.47-3.03.16-.23.28-.44.4-.66,2.12-3.87-1.83-5.58-1.59-9.72,3.1.04,5.18,1.11,6.42,2.72,2.19,2.86,1.68,7.43-.63,11.05-1.72,2.69-4.43,4.85-7.76,5.38-10.4,1.63-15.75-9.56-14.87-19.96l-3.06,3.98v64l53-85.5h-36.5l-4.53,5.9Z"/>
    <path class="st0" d="M257.01,201.87l17.99,32.5c2.97,2.21,11.71-28.8,11.99-31.5.51-4.91-.37-10.5,0-15.5l-29.98,14.5Z"/>
    <path class="st0" d="M266.2,264.58l-12.2,19.78,32.96-15.48c-3.07-7.77-13.96-3.66-20.76-4.3Z"/>
    <polygon class="st0" points="241 305.37 269 305.37 285.49 275.36 250.03 291.91 241 305.37"/>
    <path class="st0" d="M256.27,161.1l29.73,15.27-14.2-24.78-20.79-1.21c.2,4.5,5.53,6.03,5.26,10.73Z"/>
    <polygon class="st0" points="318.01 218.37 353.99 154.38 297.99 182.39 318.01 218.37"/>
    <path class="st0" d="M295.01,259.37l19.64-33.49-19.15-34.52c-1.71.07-1.58,22.09-1.54,24.55.04,2.36,1.05,4.55,1.08,6.92.16,12.17-.21,24.38-.03,36.54Z"/>
    <path class="st0" d="M300.48,158.38l-1.49,3.99c-10.88-3.85,2.37-12.51,6.9-5.39,5.64,8.86-6.8,16.42-14.89,13.41l4.6,6.91,49.39-24.93c-.62-1.67-7.22-1.27-8.29-1.01-.93.23-1.34,2.5-2.71,3.49-6.19,4.47-15.5,6.22-23,5.52v-2.99s11.01-1.5,11.01-1.5l9.99-4.5-52.99-1,9.7,16.01c5.92.71,18.49-.01,11.78-8.01Z"/>
    <path class="st0" d="M261.39,258.15l5.63-8.25c-6.51-3.88-12.88-8.28-21.02-7.53,1.19-6.19,12.38-2.18,16.34.16,1.47.87,4.97,4.84,6.16,4.82,1.3-.02,1.39-1.12.5-2.48-1.67-2.54-8.11-6.94-9-9.01-.58-1.36.22-1.68,1.5-1.5,4.1.57,6.14,5.13,9.48,7.02l-20.98-37-11.94,20.5c5.35,10.64,9.53,20.12,7.92,32.5l15.4.78Z"/>
    <path class="st0" d="M271,258.37h7.98s-3.01-6.99-3.01-6.99c-1.71-1.46-4.78,5.87-4.97,6.99Z"/>
    <polygon class="st0" points="290 220.37 280.07 241.87 290 259.37 290 220.37"/>
    <path d="M390.49,291.31c-6.14-.48-12.34,5.29-5.28,5.78,5.78.4,10.48,2.5,9.77,9.69-1.18,11.93-16.43,8.64-22.93,3.04l-48.82-84.79c18.39-32.48,34.53-66.46,55.75-97.19,18.07-14.2,24.59,20.31,4.02,17.53-.66,8.87,11.02,6.87,15.55,2.05,12.4-13.19-2.06-36.57-19.54-28.05-1.56-27.63-28.51-43.64-54.01-32.5-19.72,8.61-22.05,39-2.94,48.95,8.34,4.34,20.86,3.22,21.94-7.44-2.82-.37-2.13,2.27-4.62,3.86-5.43,3.47-13.29,1.14-17.87-2.88-12.44-10.9-8.87-33.18,7.49-37.98-5.14,7.66.15,21.04,10.28,18.8,7.28-1.61,8.23-11.87.24-12.81-3.5,2.25,1.04,3.82.48,6.48-.59,2.83-7.65.44-7-5.89.79-7.71,11.16-9.31,17.26-8.35,5.23.83,14.04,5.45,15.73,10.75-7.39-2.86-19.12.53-19.99,9.61-1.14,11.84,14.97,10.91,12.99,2.91-2.15-3.44-3.23,1.97-5.48,1.48-2.97-.64-1.46-7.28,2.42-8.55,9.85-3.24,16.79,5.08,16.69,14.23-.09,8.69-9.21,16.27-12.61,23.84l-84.81.28-53.97-90.54c-3.02-11.19,16.14-14.21,16.81-3.77.32,4.99-4,.4-5.04,5,5.04,6.25,11.8.05,10.8-6.72-1.6-10.77-18.99-13.3-25.35-4.79h-1.4s-.02-.05-.04-.07v107.62c3.15.09,4.11,1.94,6.78,6.18l18.19,32.3c-8.2-3.52-16.58-5.05-24.97-5.03v6.73c5.53-.04,10.97.62,15.76,2.02,2.01.59,5.33,1.13,6.22,3.27l-21.49,9.97-.49-.22v9.67l.48-.45,11.35,9.68-11.83,24.19v166.42c3.21,1.58,8.21,4.74,10.92,5.3,6.92,1.43,15.88.35,19.91-6.21,5.97-9.71-3.79-17.3-6.39-13.4-2.49,4.85,3.23,3.79,2.39,7.31-2.22,9.37-18.57,8.48-21.71.42l59.52-96.53,75.88-.2c12.98-1.05,27.49,21.88,13.83,28.91-10.39,5.35-18.6-6.26-13.14-11.64,1.53-1.51,5.14-.1,4.8-2.75-1.66-5.57-7.14-3.67-10.05,0-5.78,7.25-1.57,17.24,6.34,20.7,6.95,3.04,9.98,1.16,16.68-1.17-2.4,4.52-5.15,10.08-9.08,13.41-8.6,7.31-29.88,10.33-37.47.63-7.79-9.96,8.98-16.42,7.62-7.63-.16,1.04-3.56.92-3.07,3.06,1.2,5.71,15.94-2.65,5.04-11.03-9.69-7.46-19.3,4.63-17.06,14.55-13.33-9.08-4.88-39.55,10.52-39.09,5.85.18,11.48,4.91,4.98,9.09-1.07,2.41,6.19,4.01,7.33-1.75,1.15-5.85-6.03-11.68-11.44-12.21-9.31-.91-18.19,8.57-21.15,16.68-11.53,31.58,25.13,47.49,50.45,36.45,16.44-7.17,25.67-30.56,19.32-47.17,20.59,5.53,27.86-28.57,8.49-30.07ZM318.01,218.37l-20.01-35.98,56-28.01-35.98,63.99ZM295.04,222.83c-.03-2.36-1.04-4.55-1.08-6.92-.04-2.46-.17-24.48,1.54-24.55l19.15,34.52-19.64,33.49c-.18-12.16.19-24.37.03-36.54ZM331.99,151.38l-9.99,4.5-11.01,1.5v2.99c7.5.69,16.8-1.05,23-5.52,1.37-.99,1.78-3.26,2.71-3.49,1.07-.26,7.67-.66,8.29,1.01l-49.39,24.93-4.6-6.91c8.09,3.01,20.54-4.55,14.89-13.41-4.53-7.11-17.78,1.54-6.9,5.39l1.49-3.99c6.71,8-5.86,8.72-11.78,8.01l-9.7-16.01,52.99,1ZM254,284.36l12.2-19.78c6.79.64,17.69-3.47,20.76,4.3l-32.96,15.48ZM285.49,275.36l-16.49,30.01h-28l9.04-13.46,35.45-16.55ZM238.07,224.87l11.94-20.5,20.98,37c-3.34-1.89-5.39-6.44-9.48-7.02-1.28-.18-2.08.14-1.5,1.5.88,2.08,7.33,6.47,9,9.01.89,1.35.8,2.45-.5,2.48-1.19.02-4.69-3.95-6.16-4.82-3.96-2.34-15.15-6.35-16.34-.16,8.14-.75,14.51,3.66,21.02,7.53l-5.63,8.25-15.4-.78c1.61-12.39-2.57-21.86-7.92-32.5ZM287,202.87c-.28,2.7-9.02,33.71-11.99,31.5l-17.99-32.5,29.98-14.5c-.37,5,.51,10.59,0,15.5ZM278.99,258.37h-7.98c.2-1.12,3.26-8.45,4.97-6.99l3.01,6.99ZM280.07,241.87l9.92-21.5v39l-9.92-17.5ZM285.99,176.37l-29.73-15.27c.27-4.7-5.06-6.23-5.26-10.73l20.79,1.21,14.2,24.78ZM222.5,144.37l-1.5-1.5v-17c0-2.48,5.09-10.07,7.63-11.37,8.32-4.25,18.67,3.76,11.87,10.85-2.5-4.03-7.42-4.18-6.08,1.04,2.33,9.1,19.95,2.35,12.79-10.73-1.43-2.6-4.21-3.99-5.28-5.77-3.28-5.44-7.22-11.34-10.73-17.22-2.54-4.25-4.28-9.03-6.69-13.33l-2.51.53c2.08,10.81,9.73,19.75,16.01,28.48-7.24-2.67-12.05,1.5-17.14,6.04.08-1.65.11-2.43.2-4.47.6-13.27-.92-26.74-.73-39.92.01-.78.38-2.94,1.65-2.63l45.01,76.99h-44.5ZM251,158.36c-.47.4-9.71-4.73-11.03-5.5-1.29-.76-2.52.18-1.97-2.48l12.99,7.99ZM229,152.38l55.99,29.01-29.51,15.94-26.48-44.95ZM223,211.36l6.31-4.17,14.68-5.81-10.56,16.98-10.43-7ZM233.5,231.36c4.04,8.09,6.28,16.88,5.5,26.01h-18l12.5-26.01ZM220,264.37h38c-2.38,7.1-12.18,9.27-18.33,14.17-1.23.98-10.29,8.86-5.17,8.81,1.02,0,12.8-11.85,16.49-11.98l-8.48,14.01-22.51,9.99v-35ZM238,297.38l-5.71,8.01-12.29-.03c.54-1.51,3.81-2.47,5.32-3.16,1.74-.8,12.05-5.32,12.67-4.82ZM228,312.38l-7.99,10.98-.02-11,8,.02ZM220,397.87v-64l3.06-3.98c-.87,10.41,4.48,21.59,14.87,19.96,3.34-.52,6.04-2.68,7.76-5.38,2.31-3.62,2.83-8.19.63-11.05-1.23-1.61-3.31-2.67-6.42-2.72-.24,4.14,3.71,5.85,1.59,9.72-.12.21-.24.43-.4.66-1.41,2.06-2.95,2.96-4.47,3.03-4.74.21-9.27-7.74-9.09-13.98.11-3.82,2.73-8.98,4.43-11.86l4.53-5.9h36.5l-53,85.5ZM348,306.07c-2.86-.18-5.47.39-8.19.05-6.56-.82-10.79-7.88-22.31-7.83-1.76,0-16.76,3.3-13.5,6.08l15.51-2.07,9.48,3.06h-52.99s17.02-29.99,17.02-29.99l55.97,29.01c.43.45.98,1.81-.99,1.68ZM297,271.36c5.19-10.42,10.95-20.66,16.8-30.73.7-1.21,2.02-1.95,2.2-2.26.52-.92,1.76-5.81,2.01-6,.82,0,1.47.89,1.99,1.5,4.03,4.75,14.43,24.24,17,30.5l24,39.99-64-33Z"/>
  </g>
</svg>